<?xml version="1.0" encoding="utf-8"?>
<!-- Generator: Adobe Illustrator 24.0.2, SVG Export Plug-In . SVG Version: 6.00 Build 0)  -->
<svg version="1.1" id="Capa_1" xmlns="http://www.w3.org/2000/svg" xmlns:xlink="http://www.w3.org/1999/xlink" x="0px" y="0px"
	 viewBox="0 0 640 640" style="enable-background:new 0 0 640 640;" xml:space="preserve">
<style type="text/css">
	.st0{fill:#1D70B7;}
	.st1{fill:#FFFFFF;}
	.st2{fill:#E20613;}
</style>
<g>
	<path class="st0" d="M403.13,212.28c0.02,40.76,0.22,81.51-0.14,122.27c-0.08,8.67,2.2,14.11,9.92,19.23
		c58.26,38.6,83.39,113.27,60.74,178.47c-23.49,67.63-88.17,109.97-159.59,104.47c-65.81-5.07-121.3-51.08-138.26-114.64
		c-16.94-63.48,9.14-132.38,64.64-168.61c8.26-5.39,8.77-11.83,8.76-19.92c-0.09-79.66,0-159.32-0.08-238.98
		c-0.03-29.84,12.32-52.97,38.06-67.9c26.67-15.47,54.08-14.95,80.31,1.14c22.89,14.04,35.29,35.07,35.52,62.2
		C403.36,130.77,403.11,171.53,403.13,212.28z M366.48,229.16c0-43.95,0.36-87.91-0.12-131.86c-0.34-30.55-24.18-49.38-51.52-41.71
		c-17.71,4.97-28.57,21.42-28.6,44.22c-0.09,86.06-0.21,172.12,0.18,258.17c0.05,10.06-2.58,15.33-12.14,19.94
		c-45.76,22.08-70.65,69.65-63.97,119.9c7.59,57.18,52.32,97.59,112.46,101.6c53.02,3.54,103.39-35.11,117.87-90.45
		c13.29-50.79-13.17-107.56-61.99-130.95c-9.39-4.5-12.53-9.55-12.39-19.78C366.84,315.23,366.51,272.19,366.48,229.16z"/>
	<path class="st1" d="M366.49,229.16c0.01,43.03,0.35,86.06-0.23,129.08c-0.14,10.22,3,15.28,12.39,19.78
		c48.82,23.4,75.28,80.16,61.99,130.95c-14.48,55.34-64.85,93.99-117.87,90.45c-60.14-4.02-104.87-44.42-112.46-101.6
		c-6.67-50.25,18.21-97.82,63.97-119.9c9.56-4.61,12.19-9.88,12.14-19.94c-0.39-86.06-0.27-172.12-0.18-258.17
		c0.02-22.8,10.89-39.25,28.6-44.22c27.34-7.67,51.18,11.16,51.52,41.71C366.84,141.25,366.48,185.21,366.49,229.16z M344.79,313.5
		c-0.02,0-0.05,0-0.07,0c0-21.3,0.02-42.6-0.01-63.9c-0.01-10.75-4.86-17.76-15.9-19.22c-12.82-1.7-20.79,6.19-20.87,21.17
		c-0.2,40.29-0.37,80.58,0.12,120.86c0.12,10.17-2.19,15.3-12.94,18.77c-48.66,15.71-75.49,66.69-62.41,116.33
		c11.33,43.01,53.99,74.48,97.27,71.75c47.65-3.01,85.48-36.62,91.93-81.67c6.8-47.51-19.06-91.59-63.56-106.12
		c-10.94-3.57-14.27-8.65-13.79-19.63C345.4,352.42,344.79,332.95,344.79,313.5z"/>
	<path class="st2" d="M344.79,313.5c0,19.45,0.61,38.92-0.24,58.34c-0.48,10.98,2.85,16.06,13.79,19.63
		c44.5,14.53,70.36,58.6,63.56,106.12c-6.45,45.05-44.28,78.66-91.93,81.67c-43.28,2.73-85.94-28.73-97.27-71.75
		c-13.08-49.65,13.75-100.62,62.41-116.33c10.75-3.47,13.06-8.6,12.94-18.77c-0.48-40.28-0.32-80.57-0.12-120.86
		c0.07-14.99,8.05-22.88,20.87-21.17c11.04,1.46,15.89,8.48,15.9,19.22c0.03,21.3,0.01,42.6,0.01,63.9
		C344.74,313.5,344.77,313.5,344.79,313.5z"/>
</g>
</svg>
